<svg width="400" height="245" viewBox="0 0 400 245" fill="none" xmlns="http://www.w3.org/2000/svg">
<path d="M338.05 60.18C314.06 60.18 293.24 73.84 282.97 93.81H270.69C261.77 93.81 253.31 89.92 247.5 83.12L218.77 47.49C196.45 18.59 161.47 0 122.12 0C54.69 0 0 54.69 0 122.12C0 189.55 54.69 244.24 122.12 244.24C165.73 244.24 204.01 221.37 225.63 186.96L244.23 162.02L246.09 159.74C252.77 151.6 262.72 146.88 273.27 146.88H281.3C290.82 168.76 312.67 184.06 338.04 184.06C372.24 184.06 399.99 156.3 399.99 122.11C399.99 87.92 372.24 60.16 338.04 60.16L338.05 60.18ZM122.12 184.07C87.89 184.07 60.18 156.35 60.18 122.12C60.18 87.89 87.89 60.17 122.12 60.17C156.35 60.17 184.07 87.89 184.07 122.12C184.07 156.35 156.36 184.07 122.12 184.07Z" fill="white"/>
</svg>
