<svg width="630" height="130" viewBox="0 0 630 130" fill="none" xmlns="http://www.w3.org/2000/svg">
<path d="M300.43 55.05C299.19 50.87 296.8 47.59 293.29 45.23C289.77 42.87 285.52 41.69 280.55 41.69C272.76 41.69 266.6 43.93 262.07 48.4C257.54 52.87 255.27 58.94 255.27 66.6C255.27 74.26 257.51 80.11 261.98 84.65C266.45 89.19 272.36 91.45 279.69 91.45C285.28 91.45 289.99 89.97 293.82 87.01C297.65 84.05 299.98 80.08 300.81 75.11H313.8C312.31 83.77 308.48 90.58 302.31 95.55C296.14 100.52 288.43 103.01 279.2 103.01C268.31 103.01 259.45 99.64 252.64 92.88C245.83 86.13 242.42 77.37 242.42 66.6C242.42 55.83 245.84 47.02 252.67 40.29C259.5 33.56 268.43 30.19 279.45 30.19C288.35 30.19 295.85 32.43 301.94 36.9C308.03 41.37 311.8 47.42 313.25 55.04H300.45L300.43 55.05Z" fill="white"/>
<path d="M338.65 73.72L338.75 74.21C340.01 80.55 343.26 85.28 348.5 88.39C353.74 91.51 359.9 92.36 366.97 90.96C372.25 89.91 376.55 87.96 379.87 85.1C383.19 82.25 385.17 78.83 385.82 74.86L399.96 72.05C399.01 79.84 395.85 86.39 390.47 91.7C385.09 97.01 378.01 100.54 369.23 102.29C358.1 104.5 348.56 103.03 340.61 97.87C332.66 92.71 327.61 84.71 325.45 73.87C323.29 63.02 324.9 53.7 330.28 45.9C335.65 38.1 343.91 33.09 355.04 30.88C366.41 28.62 375.96 30.02 383.68 35.07C391.4 40.12 396.36 48.22 398.58 59.35L399.05 61.73L338.66 73.73L338.65 73.72ZM337.31 65.06L384.35 55.71C382.28 50.21 378.85 46.26 374.04 43.85C369.23 41.45 363.64 40.88 357.26 42.15C350.92 43.41 345.98 46.07 342.44 50.13C338.9 54.19 337.18 59.17 337.3 65.06H337.31Z" fill="white"/>
<path d="M414.689 100.59V8.70001H426.989V100.59H414.689Z" fill="white"/>
<path d="M459.05 23.61H446.75V8.70001H459.05V23.61ZM446.75 100.59V32.5H459.05V100.59H446.75Z" fill="white"/>
<path d="M473.46 66.61C473.46 55.59 476.92 46.77 483.84 40.14C490.76 33.51 500.01 30.2 511.61 30.2C523.21 30.2 532.44 33.5 539.32 40.11C546.19 46.72 549.63 55.55 549.63 66.61C549.63 77.67 546.19 86.5 539.32 93.11C532.44 99.72 523.21 103.02 511.61 103.02C500.01 103.02 490.75 99.72 483.84 93.11C476.92 86.5 473.46 77.67 473.46 66.61ZM486.32 66.61C486.32 74.27 488.59 80.33 493.12 84.78C497.66 89.23 503.82 91.46 511.6 91.46C519.38 91.46 525.54 89.23 530.05 84.78C534.56 80.33 536.82 74.27 536.82 66.61C536.82 58.95 534.56 52.83 530.05 48.38C525.53 43.93 519.38 41.7 511.6 41.7C503.82 41.7 497.65 43.94 493.12 48.41C488.59 52.88 486.32 58.95 486.32 66.61Z" fill="white"/>
<path d="M563.24 100.59V32.5H575.48V44.24C579.21 39.68 583.39 36.3 588.03 34.08C592.67 31.86 597.87 30.76 603.62 30.76C608.09 30.76 612.06 31.41 615.52 32.72C618.98 34.02 621.83 35.96 624.06 38.53C626.01 40.77 627.38 43.44 628.19 46.55C629 49.66 629.4 54.65 629.4 61.52V100.6H617.1V61.01C617.1 53.8 615.85 48.7 613.34 45.7C610.83 42.7 606.66 41.2 600.82 41.2C593.36 41.2 587.3 43.48 582.62 48.03C577.94 52.59 575.6 58.57 575.6 65.99V100.6H563.24V100.59Z" fill="white"/>
<path d="M179.53 31.96C166.79 31.96 155.73 39.22 150.28 49.82H143.76C139.03 49.82 134.53 47.75 131.45 44.14L116.19 25.22C104.33 9.87 85.75 0 64.86 0C29.05 0 0 29.05 0 64.86C0 100.67 29.05 129.72 64.86 129.72C88.02 129.72 108.35 117.57 119.83 99.3L129.71 86.06L130.7 84.85C134.25 80.52 139.53 78.02 145.14 78.02H149.4C154.46 89.64 166.06 97.76 179.53 97.76C197.69 97.76 212.43 83.02 212.43 64.86C212.43 46.7 197.69 31.96 179.53 31.96ZM64.86 97.76C46.68 97.76 31.97 83.04 31.97 64.86C31.97 46.68 46.69 31.96 64.86 31.96C83.03 31.96 97.76 46.68 97.76 64.86C97.76 83.04 83.04 97.76 64.86 97.76Z" fill="white"/>
</svg>
