<svg width="22" height="20" viewBox="0 0 22 20" fill="none" xmlns="http://www.w3.org/2000/svg">
<path d="M7.53762 19.4195C8.43051 19.4195 9.15434 18.6957 9.15434 17.8028C9.15434 16.9099 8.43051 16.1861 7.53762 16.1861C6.64473 16.1861 5.9209 16.9099 5.9209 17.8028C5.9209 18.6957 6.64473 19.4195 7.53762 19.4195Z" fill="#FF5704"/>
<path d="M18.8545 19.4195C19.7474 19.4195 20.4712 18.6957 20.4712 17.8028C20.4712 16.9099 19.7474 16.1861 18.8545 16.1861C17.9616 16.1861 17.2378 16.9099 17.2378 17.8028C17.2378 18.6957 17.9616 19.4195 18.8545 19.4195Z" fill="#FF5704"/>
<path d="M21.7242 2.8875C21.6106 2.74859 21.4676 2.63671 21.3054 2.55998C21.1432 2.48325 20.9659 2.4436 20.7865 2.44391H5.40995L5.10025 0.686738C5.06722 0.499566 4.96931 0.330016 4.82369 0.207868C4.67807 0.0857214 4.49407 0.0187894 4.30401 0.0188294H1.07057C0.856177 0.0188294 0.650568 0.103996 0.49897 0.255593C0.347373 0.40719 0.262207 0.6128 0.262207 0.82719C0.262207 1.04158 0.347373 1.24719 0.49897 1.39879C0.650568 1.55038 0.856177 1.63555 1.07057 1.63555H3.626L5.93286 14.7098C5.96588 14.897 6.0638 15.0665 6.20942 15.1887C6.35503 15.3108 6.53903 15.3777 6.7291 15.3777H19.6629C19.8773 15.3777 20.0829 15.2925 20.2345 15.1409C20.3861 14.9893 20.4712 14.7837 20.4712 14.5693C20.4712 14.3549 20.3861 14.1493 20.2345 13.9977C20.0829 13.8461 19.8773 13.761 19.6629 13.761H7.40711L7.12216 12.1442H19.3314C19.6118 12.1439 19.8834 12.0467 20.1003 11.8691C20.3172 11.6915 20.4661 11.4444 20.5218 11.1697L21.9768 3.89442C22.0119 3.71835 22.0074 3.53669 21.9637 3.36256C21.92 3.18843 21.8382 3.02617 21.7242 2.8875Z" fill="#FF5704"/>
</svg>
